<svg width="200" height="200" viewBox="0 0 200 200" xmlns="http://www.w3.org/2000/svg"><title>staticfile</title><g fill="none" fill-rule="evenodd"><path fill="#DABC06" d="M17.433 121.606L10.291 41.49h78.487l-7.15 80.102-32.142 8.91z"/><path fill="#F8E600" d="M49.534 123.693l25.972-7.2 6.11-68.452H49.534z"/><path fill="#EBEBEB" d="M49.534 77.755H38.082l.343-10.062h11.11v-9.826H27.996l-.451 29.714h21.988zm0 25.518l-10.986-2.943-.7-7.836h-9.863l1.377 15.427 20.127 5.588z"/><path fill="#FFF" d="M49.5 77.755v9.826h12.1l-1.141 12.743-10.959 2.958v10.222l20.144-5.583 2.696-30.166zm0-19.888v9.802l12.448.016.755 5.118 9.788.004-1.633-14.94z"/><path fill="#1572B6" d="M118.765 114.942l-7.118-79.843h78.22l-7.125 79.83-32.033 8.88z"/><path fill="#33A9DC" d="M176.641 109.846l6.09-68.219h-31.973v75.395z"/><path fill="#FFF" d="M163.715 70.554l.895-10.028h-13.853v-9.792h24.555l-2.641 29.612h-21.914v-9.792z"/><path fill="#EBEBEB" d="M139.867 93.053l-.697-7.81h-9.83l1.372 15.375 20.059 5.569.045-10.202z"/><path fill="#FFF" d="M161.704 93.046l-10.922 2.948v10.188l20.075-5.564 1.85-20.686h-9.824z"/><path fill="#EBEBEB" d="M150.791 60.502l-23.622.024-.908-9.792h24.53zm-.034 19.821l-10.736.025-.908-9.793h11.644z"/><path fill="#E44D26" d="M71.387 155.56l-7.143-80.116h78.487l-7.15 80.103-32.141 8.91z"/><path fill="#F16529" d="M103.488 157.646l25.971-7.2 6.11-68.451h-32.081z"/><path fill="#EBEBEB" d="M103.488 111.708H90.486l-.898-10.061h13.9V91.82H78.849l2.65 29.713h21.989zm0 25.519l-10.986-2.943-.7-7.837h-9.864l1.377 15.428 20.127 5.587z"/><path fill="#FFF" d="M103.454 111.708v9.826h12.099l-1.14 12.743-10.96 2.958v10.223l20.144-5.583 2.697-30.167zm0-19.888v9.803l23.702.024.911-9.826z"/></g></svg>